<svg xmlns="http://www.w3.org/2000/svg" width="1440" height="541" fill="none"><mask id="a" width="1440" height="541" x="0" y="0" maskUnits="userSpaceOnUse" style="mask-type:alpha"><path fill="#025BE6" d="M0 0h1440v541H0z"/></mask><g mask="url(#a)"><path fill="#025BE6" d="M0 0h1440v541H0z"/><g opacity=".08"><g fill="#FDF9F5" clip-path="url(#b)" opacity=".7"><path d="M1297.83 234.959c0 24.561-22.84 145.007-22.84 145.007s-22.84-120.446-22.84-145.007c0-24.561 10.24-34.959 22.84-34.959s22.84 10.379 22.84 34.959zm-76.35 7.14c12.29 21.284 52.73 137.009 52.73 137.009s-80-92.9-92.3-114.164c-12.29-21.284-8.62-35.389 2.31-41.69 10.92-6.301 24.97-2.419 37.26 18.845zm-62.55 44.382c21.29 12.291 114.17 92.295 114.17 92.295s-115.73-40.441-137.01-52.731c-21.28-12.291-25.17-26.337-18.85-37.262 6.31-10.925 20.41-14.592 41.69-2.302zm-31.97 69.704c24.56 0 145.01 22.845 145.01 22.845s-120.45 22.844-145.01 22.844c-24.56 0-34.96-10.242-34.96-22.864s10.38-22.844 34.96-22.844v.019zm7.14 76.337c21.28-12.29 137.01-52.731 137.01-52.731s-92.88 80.004-114.17 92.294c-21.28 12.291-35.38 8.623-41.69-2.302-6.3-10.924-2.41-24.971 18.85-37.261zm44.38 62.544c12.29-21.284 92.3-114.164 92.3-114.164s-40.45 115.725-52.74 137.009c-12.29 21.283-26.33 25.166-37.26 18.845-10.92-6.301-14.59-20.406-2.3-41.69zm69.71 31.994c0-24.561 22.84-145.007 22.84-145.007s22.84 120.446 22.84 145.007c0 24.561-10.22 34.96-22.84 34.96s-22.84-10.379-22.84-34.96zm76.33-7.159c-12.29-21.284-52.73-137.009-52.73-137.009s80 92.9 92.3 114.164c12.29 21.284 8.62 35.389-2.31 41.69-10.92 6.301-24.97 2.419-37.26-18.845zm62.55-44.382c-21.29-12.291-114.17-92.295-114.17-92.295s115.73 40.441 137.01 52.731c21.28 12.291 25.17 26.337 18.85 37.262-6.31 10.924-20.41 14.592-41.69 2.302zm31.99-69.685c-24.58 0-145.03-22.844-145.03-22.844s120.45-22.844 145.03-22.844 34.96 10.222 34.96 22.844c0 12.622-10.38 22.844-34.96 22.844zm-7.16-76.356c-21.28 12.29-137.01 52.732-137.01 52.732s92.9-80.005 114.17-92.295c21.28-12.291 35.38-8.623 41.69 2.302 6.3 10.925 2.41 24.971-18.85 37.261zm-44.36-62.544c-12.29 21.283-92.3 114.164-92.3 114.164s40.44-115.725 52.73-137.009c12.3-21.284 26.34-25.166 37.27-18.845 10.92 6.301 14.59 20.406 2.3 41.69z"/></g><g clip-path="url(#c)" opacity=".7"><path fill="#FDF9F5" d="M100.108-52C31.982-52-36.13-26.072-88 25.797l83.54 83.539c57.652-57.652 151.471-57.652 209.124 0 57.652 57.653 57.652 151.472 0 209.125L288.203 402c103.725-103.725 103.725-272.491 0-376.203C236.347-26.058 168.221-52 100.094-52h.014z"/></g><path stroke="#FDF9F5" stroke-linecap="round" stroke-linejoin="round" stroke-width="4" d="M832.625 249.782C804.837 242.971 792.611 229.588 786 199c-6.611 30.588-18.837 43.971-46.625 50.782L739 250l.375.218C767.163 257.029 779.389 270.412 786 301c6.611-30.588 18.837-43.971 46.625-50.782L833 250l-.375-.218z"/></g></g><defs><clipPath id="b"><path fill="#fff" d="M1092 200h362v362h-362z"/></clipPath><clipPath id="c"><path fill="#fff" d="M-88 402h454V-52H-88z"/></clipPath></defs></svg>